<svg xmlns="http://www.w3.org/2000/svg" viewBox="0 0 800 200" width="100%" height="100%">
  <defs>
    <linearGradient id="purpleGradient" x1="0%" y1="0%" x2="100%" y2="100%">
      <stop offset="0%" stop-color="#b666ff"/>
      <stop offset="50%" stop-color="#7e22ce"/>
      <stop offset="100%" stop-color="#4c1d95"/>
    </linearGradient>
  </defs>

  <g transform="translate(110, 100)">
    <path id="outer-ring"
      d="M 0 -68
     L 58.9 -34 
     L 58.9 34 
     L 0 68 
     L -58.9 34 
     L -58.9 -34 
     Z 
     M 0 -46 
     L -39.8 -23 
     L -39.8 23 
     L 0 46 
     L 39.8 23 
     L 39.8 -23 
     Z" 
      fill="url(#purpleGradient)" fill-rule="evenodd" />

    <path id="outer-top-facet"
      d="M 0 -68 L -58.9 -34 L -39.8 -23 L 0 -46 Z"
      fill="#c084fc" opacity="0.28" />
    <path d="M 0 -68 L 58.9 -34 L 39.8 -23 L 0 -46 Z"
      fill="#a855f7" opacity="0.16" />
    <path d="M -58.9 -34 L -39.8 -23 L -39.8 23 L -58.9 34 Z"
      fill="#8b5cf6" opacity="0.22" />
    <path d="M -58.9 34 L -39.8 23 L 0 46 L 0 68 Z"
      fill="#6d28d9" opacity="0.34" />
    <path d="M 0 68 L 0 46 L 39.8 23 L 58.9 34 Z"
      fill="#5b21b6" opacity="0.28" />
    <path d="M 58.9 -34 L 39.8 -23 L 39.8 23 L 58.9 34 Z"
      fill="#7c3aed" opacity="0.16" />

    <path id="inner-c"
      d="M 27 -16
     L 0 -31
     L -29 -14
     L -29 18
     L 0 35
     L 27 19
     L 14 11
     L 0 19 
     L -16 10
     L -16 -6
     L 0 -15
     L 14 -7
     Z" 
      fill="url(#purpleGradient)" />

    <path d="M 0 -31 L 27 -16 L 14 -7 L 0 -15 Z"
      fill="#a855f7" opacity="0.28" />
    <path d="M 0 -31 L -29 -14 L -16 -6 L 0 -15 Z"
      fill="#c084fc" opacity="0.34" />
    <path id="inner-left-facet"
      d="M -29 -14 L -16 -6 L -16 10 L -29 18 Z"
      fill="#8b5cf6" opacity="0.3" />
    <path d="M -29 18 L 0 35 L 0 19 L -16 10 Z"
      fill="#5b21b6" opacity="0.42" />
    <path d="M 0 35 L 27 19 L 14 11 L 0 19 Z"
      fill="#6d28d9" opacity="0.26" />
  </g>

  <text x="210" y="128" 
        font-family="'Montserrat', 'Century Gothic', 'Poppins', 'Segoe UI', sans-serif" 
        font-weight="700" 
        font-size="88" 
        fill="#ffffff" 
        letter-spacing="-2.5">
    canon
  </text>
</svg>
